<?xml version="1.0" encoding="utf-8"?>

<!DOCTYPE svg PUBLIC "-//W3C//DTD SVG 1.1//EN" "http://www.w3.org/Graphics/SVG/1.1/DTD/svg11.dtd">
<!-- Uploaded to: SVG Repo, www.svgrepo.com, Generator: SVG Repo Mixer Tools -->
<svg height="800px" width="800px" version="1.1" id="_x32_" xmlns="http://www.w3.org/2000/svg" xmlns:xlink="http://www.w3.org/1999/xlink" 
	 viewBox="0 0 512 512"  xml:space="preserve">
<style type="text/css">
	.st0{fill:#000000;}
</style>
<g>
	<path class="st0" d="M488.765,125.844l-40.089-33.043l-1.497-30.898H344.554c2.732,7.516,4.583,15.441,5.316,23.706h74.73
		l0.91,18.822l23.528,19.392H334.491V93.966c-0.007-43.36-35.142-78.487-78.487-78.502c-43.361,0.008-78.495,35.142-78.495,78.502
		c0,1.436,0,13.79,0,29.857H62.452l22.834-19.3l1.674-18.914h75.169c0.725-8.265,2.578-16.19,5.309-23.706H65.26l-2.724,30.813
		l-39.309,33.22l-0.316,5.047L0,496.536h512L488.765,125.844z M195.72,93.966c0.008-16.684,6.737-31.677,17.656-42.619
		c10.935-10.927,25.952-17.664,42.627-17.664c16.668,0,31.685,6.737,42.612,17.664c10.927,10.942,17.656,25.936,17.656,42.619
		v29.857H195.72C195.72,107.757,195.72,95.402,195.72,93.966z M25.233,472.83l20.89-333.203h131.386c0,26.561,0,56.425,0,65.322
		c-7.886,3.496-13.404,11.351-13.404,20.557c0,12.424,10.078,22.494,22.51,22.494c12.423,0,22.502-10.07,22.502-22.494
		c0-9.198-5.517-17.061-13.396-20.557c0-8.89,0-38.754,0-65.322h120.552v65.33c-7.871,3.496-13.381,11.352-13.381,20.55
		c0,12.424,10.062,22.494,22.486,22.494c12.44,0,22.51-10.07,22.51-22.494c0-9.198-5.509-17.061-13.396-20.557v-65.322h131.386
		l20.889,333.203H25.233z"/>
	<path class="st0" d="M286.693,61.903h-61.379l-0.764,0.625c-6.382,6.397-10.548,14.392-12.2,23.081h87.3
		c-1.644-8.689-5.819-16.691-12.216-23.096L286.693,61.903z"/>
</g>
</svg>