<?xml version="1.0" encoding="iso-8859-1"?>
<!-- Uploaded to: SVG Repo, www.svgrepo.com, Generator: SVG Repo Mixer Tools -->
<svg height="800px" width="800px" version="1.1" id="Layer_1" xmlns="http://www.w3.org/2000/svg" xmlns:xlink="http://www.w3.org/1999/xlink" 
	 viewBox="0 0 511.123 511.123" xml:space="preserve">
<path style="fill:#AED581;" d="M98.707,450.569c1.6-12,0-23.6-7.6-30.8c-7.6-7.6-19.2-9.2-30.8-7.6l-0.8-0.8
	c133.6-134.4,378-407.2,378-407.2l-6.8,41.2l40.8-7.2l-7.2,40.8l41.6-6.4c0,0-280.4,245.2-407.2,378.4L98.707,450.569z"/>
<path style="fill:#FFF9C4;" d="M91.507,419.769c-7.6-7.6-19.2-9.2-30.8-7.6c-12.8,2-26,8.4-34.4,16.4c-15.6,15.6-12.4,37.6,2.8,53.2
	c2,2,4,3.6,6,5.2c14.8,10.8,33.6,11.6,47.2-2c8-8,14.4-21.2,16.4-34.4C100.707,438.969,98.707,427.369,91.507,419.769z"/>
<path d="M99.507,455.369c-0.8,0-2-0.4-2.8-1.2c-1.6-1.6-1.6-4,0-5.6c111.6-117.2,345.6-324,397.2-369.6l-28,4.4
	c-1.2,0-2.4-0.4-3.6-1.2c-0.8-0.8-1.2-2.4-1.2-3.6l6.4-35.2l-35.2,6c-1.2,0.4-2.4,0-3.6-1.2c-0.8-0.8-1.2-2.4-1.2-3.6l4.4-27.6
	c-45.6,50.8-251.6,279.2-369.2,397.2c-1.6,1.6-4,1.6-5.6,0s-1.6-4,0-5.6c132-132.8,375.6-404.4,378-407.2c1.2-1.2,3.2-1.6,4.8-0.8
	c1.6,0.8,2.4,2.4,2.4,4.4l-6,35.6l35.6-6c1.2-0.4,2.8,0,3.6,1.2c0.8,0.8,1.2,2.4,1.2,3.6l-6.4,35.2l36-5.6c1.6-0.4,3.6,0.8,4.4,2.4
	s0.4,3.6-0.8,4.8c-2.8,2.4-281.6,246.8-406.8,378C101.507,454.969,100.707,455.369,99.507,455.369z"/>
<path d="M58.307,498.969c-8.8,0-17.6-2.8-25.6-8.8c-2-1.6-4.4-3.6-6.4-5.6c-18-18-19.2-42.8-2.8-58.8c8.8-8.8,22.8-15.6,36.4-17.6
	l0,0c14.4-2,26.4,0.8,34.4,8.4c7.6,7.6,10.8,20,8.4,34.4c-2,13.6-8.8,27.6-17.6,36.4C77.907,495.369,68.307,498.969,58.307,498.969z
	 M61.107,416.169c-12,2-24.4,7.6-32,15.2c-13.2,13.2-12,32.8,2.8,47.6c1.6,1.6,3.6,3.2,5.6,4.8c14,10.4,30.8,9.6,42-1.6
	c7.6-7.6,13.6-20,15.2-32c1.2-6.8,1.6-19.6-6.4-27.2C82.707,416.969,73.107,414.569,61.107,416.169L61.107,416.169z"/>
<path d="M15.107,500.169c-1.2,0-2-0.4-2.8-1.2c-1.6-1.6-1.6-4,0-5.6l11.2-11.2c1.6-1.6,4-1.6,5.6,0s1.6,4,0,5.6l-11.2,11.2
	C17.107,499.769,15.907,500.169,15.107,500.169z"/>
<path d="M26.307,510.969c-0.4,0-1.2,0-1.6-0.4c-2-0.8-2.8-3.2-2-5.2l8.8-20c0.8-2,3.2-2.8,5.2-2s2.8,3.2,2,5.2l-8.8,20
	C29.107,510.169,27.907,510.969,26.307,510.969z"/>
<path d="M3.907,488.569c-1.6,0-3.2-0.8-3.6-2.4c-0.8-2,0-4.4,2-5.2l20-8.8c2-0.8,4.4,0,5.2,2s0,4.4-2,5.2l-20,8.8
	C5.107,488.569,4.307,488.569,3.907,488.569z"/>
<path d="M81.107,415.769c-0.8,0-2-0.4-2.8-1.2c-1.6-1.6-1.6-4,0-5.6l77.2-80.4c1.6-1.6,4-1.6,5.6,0s1.6,4,0,5.6l-77.2,80.4
	C83.107,415.369,81.907,415.769,81.107,415.769z"/>
<path d="M180.307,311.769c-0.8,0-2-0.4-2.8-1.2c-1.6-1.6-1.6-4,0-5.6l69.6-72.8c1.6-1.6,4-1.6,5.6,0s1.6,4,0,5.6l-69.6,72.8
	C182.307,311.369,181.107,311.769,180.307,311.769z"/>
<path d="M292.707,194.569c-0.8,0-2-0.4-2.8-1.2c-1.6-1.6-1.6-4,0-5.6l23.2-24.4c1.6-1.6,4-1.6,5.6,0s1.6,4,0,5.6l-23.2,24.4
	C294.707,194.169,293.507,194.569,292.707,194.569z"/>
<path d="M143.507,388.569c-1.2,0-2-0.4-2.8-1.2c-1.6-1.6-1.6-4,0-5.6l46.4-44.8c1.6-1.6,4-1.6,5.6,0s1.6,4,0,5.6l-46.4,44.8
	C145.507,388.169,144.707,388.569,143.507,388.569z"/>
<path d="M367.507,176.969c-1.2,0-2-0.4-2.8-1.2c-1.6-1.6-1.6-4,0-5.6l21.2-20.4c1.6-1.6,4-1.6,5.6,0s1.6,4,0,5.6l-21.2,20.4
	C369.507,176.569,368.307,176.969,367.507,176.969z"/>
<path d="M415.107,131.369c-1.2,0-2-0.4-2.8-1.2c-1.6-1.6-1.6-4,0-5.6l50-48c1.6-1.6,4-1.6,5.6,0s1.6,4,0,5.6l-50,48
	C417.107,130.969,415.907,131.369,415.107,131.369z"/>
</svg>